<svg id="圖層_1" data-name="圖層 1" xmlns="http://www.w3.org/2000/svg" viewBox="0 0 76.74 28.55"><defs><style>.cls-1{fill:none;stroke:#394145;stroke-linecap:round;stroke-width:2px;}.cls-2{fill:#394145;}</style></defs><path id="Path_1" data-name="Path 1" class="cls-1" d="M25.53,31.28c-.29,0-.58,0-.86,0a8.21,8.21,0,0,1,.86-16.4A8.34,8.34,0,0,1,34,23.06" transform="translate(-4.82 -9)"/><path id="Path_5" data-name="Path 5" class="cls-1" d="M22.65,34.39c-5.82,0-10.55-5.46-10.55-12.19S16.83,10,22.65,10" transform="translate(-4.82 -9)"/><path id="Path_6" data-name="Path 6" class="cls-1" d="M5.82,23.37A13.38,13.38,0,0,0,19.39,36.55" transform="translate(-4.82 -9)"/><path class="cls-2" d="M47.73,26.24v2a2.17,2.17,0,0,1-.08.64,1.15,1.15,0,0,1-.3.44,3.27,3.27,0,0,1-.55.37,9.13,9.13,0,0,1-1.87.75,7.57,7.57,0,0,1-2,.24,6.48,6.48,0,0,1-2.25-.38,4.64,4.64,0,0,1-2.82-2.81,6.27,6.27,0,0,1-.39-2.26A6.48,6.48,0,0,1,37.89,23,4.5,4.5,0,0,1,39,21.27a4.64,4.64,0,0,1,1.76-1.09,6.86,6.86,0,0,1,2.35-.37,5.86,5.86,0,0,1,1.91.28,4.08,4.08,0,0,1,1.35.72,3,3,0,0,1,.78.91,1.78,1.78,0,0,1,.26.86.91.91,0,0,1-.3.68,1,1,0,0,1-.73.28,1,1,0,0,1-.45-.1,1.19,1.19,0,0,1-.36-.31,7.08,7.08,0,0,0-.68-.93,2.1,2.1,0,0,0-.74-.53,2.83,2.83,0,0,0-1.2-.22,3.39,3.39,0,0,0-1.35.25,2.84,2.84,0,0,0-1,.74,3.24,3.24,0,0,0-.64,1.19,5.11,5.11,0,0,0-.23,1.56A4.24,4.24,0,0,0,40.57,28,3,3,0,0,0,43,29a5,5,0,0,0,1.41-.19,7.15,7.15,0,0,0,1.34-.55V26.59H44.06a1.83,1.83,0,0,1-.91-.18.65.65,0,0,1-.31-.61.71.71,0,0,1,.26-.58,1,1,0,0,1,.7-.23h2.46a2.89,2.89,0,0,1,.77.08.87.87,0,0,1,.51.35A1.5,1.5,0,0,1,47.73,26.24Z" transform="translate(-4.82 -9)"/><path class="cls-2" d="M54.51,19.82a5.84,5.84,0,0,1,2.86.66,4.38,4.38,0,0,1,1.8,1.89,6.24,6.24,0,0,1,.61,2.88,7,7,0,0,1-.33,2.22,4.82,4.82,0,0,1-1,1.73,4.44,4.44,0,0,1-1.65,1.12,6.58,6.58,0,0,1-4.49,0,4.49,4.49,0,0,1-1.66-1.13,4.72,4.72,0,0,1-1-1.75,6.81,6.81,0,0,1-.34-2.2A6.64,6.64,0,0,1,49.66,23a4.63,4.63,0,0,1,1-1.72,4.41,4.41,0,0,1,1.64-1.09A6,6,0,0,1,54.51,19.82Zm3.08,5.42a4.94,4.94,0,0,0-.38-2A2.79,2.79,0,0,0,56.13,22a3,3,0,0,0-1.62-.44,3,3,0,0,0-1.2.24,2.53,2.53,0,0,0-1,.7,3.27,3.27,0,0,0-.63,1.17,5.79,5.79,0,0,0,0,3.23,3.24,3.24,0,0,0,.64,1.21,2.76,2.76,0,0,0,1,.71,2.91,2.91,0,0,0,1.19.24,2.88,2.88,0,0,0,1.53-.41,2.76,2.76,0,0,0,1.11-1.26A4.73,4.73,0,0,0,57.59,25.24Z" transform="translate(-4.82 -9)"/><path class="cls-2" d="M64.55,26h-.76v3.38a1.4,1.4,0,0,1-.3,1,1,1,0,0,1-.78.31,1,1,0,0,1-.81-.33,1.5,1.5,0,0,1-.28-1v-8.1a1.36,1.36,0,0,1,.31-1A1.45,1.45,0,0,1,63,20h3.53a10.93,10.93,0,0,1,1.24.06,3,3,0,0,1,.94.25,2.94,2.94,0,0,1,.89.59,2.65,2.65,0,0,1,.59.91,3,3,0,0,1,.2,1.08,2.66,2.66,0,0,1-.68,1.89,4,4,0,0,1-2,1,4,4,0,0,1,1.1.89,10.31,10.31,0,0,1,.94,1.26,9,9,0,0,1,.64,1.2,2.43,2.43,0,0,1,.23.74.78.78,0,0,1-.14.41,1,1,0,0,1-.37.32,1.13,1.13,0,0,1-.54.12,1.09,1.09,0,0,1-.61-.17,1.76,1.76,0,0,1-.43-.43c-.12-.17-.28-.42-.48-.76l-.87-1.42a8.87,8.87,0,0,0-.83-1.2,2.16,2.16,0,0,0-.75-.56A2.61,2.61,0,0,0,64.55,26Zm1.25-4.42h-2V24.5h1.95a5.41,5.41,0,0,0,1.31-.13,1.59,1.59,0,0,0,.82-.45,1.33,1.33,0,0,0,.28-.88,1.34,1.34,0,0,0-.23-.77,1.31,1.31,0,0,0-.63-.5A4.4,4.4,0,0,0,65.8,21.61Z" transform="translate(-4.82 -9)"/><path class="cls-2" d="M79.24,29.36,78.73,28H74.38l-.51,1.35a4.38,4.38,0,0,1-.52,1.07.82.82,0,0,1-.69.27,1,1,0,0,1-.72-.29.91.91,0,0,1-.32-.67,1.53,1.53,0,0,1,.08-.45c0-.15.13-.36.24-.64l2.74-6.83c.08-.2.18-.43.29-.71a3.69,3.69,0,0,1,.35-.69,1.4,1.4,0,0,1,.49-.44,1.53,1.53,0,0,1,.74-.16,1.56,1.56,0,0,1,.76.16,1.49,1.49,0,0,1,.49.44,3.15,3.15,0,0,1,.31.57c.09.2.2.48.33.82l2.79,6.8a3.32,3.32,0,0,1,.33,1.12,1,1,0,0,1-.32.67,1,1,0,0,1-.74.31,1,1,0,0,1-.44-.09.84.84,0,0,1-.31-.25,2.57,2.57,0,0,1-.27-.47ZM75,26.43h3.2l-1.61-4.35Z" transform="translate(-4.82 -9)"/></svg>